<svg version="1.1" xmlns="http://www.w3.org/2000/svg" viewBox="0 0 509.5411135602742 459.52191162109375" width="509.5411135602742" height="459.52191162109375">
  <!-- svg-source:excalidraw -->
  
  <defs>
    <style class="style-fonts">
      @font-face {
        font-family: "Virgil";
        src: url("https://excalidraw.com/Virgil.woff2");
      }
      @font-face {
        font-family: "Cascadia";
        src: url("https://excalidraw.com/Cascadia.woff2");
      }
    </style>
  </defs>
  <rect x="0" y="0" width="509.5411135602742" height="459.52191162109375" fill="#ffffff"></rect><g stroke-linecap="round"><g transform="translate(168.1780764508992 12.662200927734375) rotate(0 -1.5693979630898411 216.41792551366615)"><path d="M0.9 -0.19 C0.12 72.06, -2.78 360.85, -3.5 432.98 M-0.09 -1.33 C-1.06 71.1, -3.44 361.73, -4.03 434.17" stroke="#000000" stroke-width="4" fill="none"></path></g></g><mask></mask><g stroke-linecap="round"><g transform="translate(335.1106936383992 15.057037353515625) rotate(0 -1.42762405599467 213.45991939942348)"><path d="M-0.17 -1.16 C-0.43 69.88, -1.55 355.31, -1.79 427 M-1.73 0.84 C-2.1 71.95, -2.59 357.02, -2.68 428.08" stroke="#000000" stroke-width="4" fill="none"></path></g></g><mask></mask><g stroke-linecap="round"><g transform="translate(12.967627232149198 164.0009765625) rotate(0 242.07903189510108 -1.0805924473330322)"><path d="M-0.19 0.78 C80.48 0.42, 402.99 -0.78, 483.54 -1.29 M-1.75 0.15 C79.36 -0.62, 404.7 -2.75, 485.91 -2.94" stroke="#000000" stroke-width="4" fill="none"></path></g></g><mask></mask><g stroke-linecap="round"><g transform="translate(10.784887974336698 312.5930175781251) rotate(0 243.8385604750365 -1.7957767596840881)"><path d="M-0.78 -0.93 C80.44 -1.47, 406.79 -2.56, 488.46 -3.28 M1 1.2 C82 0.36, 406.3 -3.87, 487.63 -4.79" stroke="#000000" stroke-width="4" fill="none"></path></g></g><mask></mask><g stroke-linecap="round" transform="translate(11.697241489961698 10) rotate(0 243.92193603515625 219.76095581054688)"><path d="M32 0 M32 0 C159.1 0.73, 285.49 0.24, 455.84 0 M32 0 C140.13 1.45, 248.26 1.59, 455.84 0 M455.84 0 C475.41 1.44, 488.26 9.76, 487.84 32 M455.84 0 C477.59 0.9, 488.92 10.14, 487.84 32 M487.84 32 C489.11 176.65, 488.95 321.52, 487.84 407.52 M487.84 32 C488.35 175.57, 488.02 319.59, 487.84 407.52 M487.84 407.52 C487.47 427.06, 478.41 437.78, 455.84 439.52 M487.84 407.52 C489.1 427.54, 478.21 439.31, 455.84 439.52 M455.84 439.52 C300.41 438.69, 146.65 437.53, 32 439.52 M455.84 439.52 C336.39 440.53, 216.2 440.2, 32 439.52 M32 439.52 C10.51 440.31, -1.9 430.65, 0 407.52 M32 439.52 C9.67 439.94, -1.29 427.34, 0 407.52 M0 407.52 C2.31 284.11, 2.28 163.8, 0 32 M0 407.52 C-1.35 316.06, -1.89 226.18, 0 32 M0 32 C0.63 12.05, 10.7 1.49, 32 0 M0 32 C-1.64 12.84, 10.49 0.77, 32 0" stroke="#000000" stroke-width="4" fill="none"></path></g></svg>